<!-- Generated by scripts/nameplates.ts. Noto Sans SC Black (SIL OFL 1.1). -->
<svg xmlns="http://www.w3.org/2000/svg" viewBox="0 -122.0 1124.5 244.0"><path id="accent" d="M465.2 107.1L465.2 10.6L615.2 10.6L615.2 106.2L580.0 106.2L580.0 98.9L498.9 98.9L498.9 107.1L465.2 107.1ZM538.6-108.4L538.6-108.4L568.0-93.3Q564.4-88.1 560.5-83.1L560.5-83.1Q580.9-65.3 600.8-54.7L600.8-54.7Q624.7-41.6 647.5-34.3L647.5-34.3Q641.2-28.7 634.9-20.3Q628.5-12.0 625.1-4.1L625.1-4.1Q610.0-11.1 594.7-19.7L594.7-19.7L594.7-4.5L481.7-4.5L481.7-15.1Q467.9-6.8 453.9 0L453.9 0Q449.9-7.2 443.3-15.7Q436.8-24.2 429.8-30.5L429.8-30.5Q450.3-38.6 470.8-50.0Q491.2-61.4 508.8-76.1Q526.4-90.8 538.6-108.4ZM498.9 68.7L580.0 68.7L580.0 39.3L498.9 39.3L498.9 68.7ZM510.4-34.6L571.2-34.6Q565.5-38.6 559.9-43.4L559.9-43.4Q550.2-50.8 540.2-60.3L540.2-60.3Q537.7-57.8 535.3-55.6L535.3-55.6Q523.3-44.3 510.4-34.6L510.4-34.6Z M751.8-57.8L751.8-91.0L877.0-91.0L877.0-57.8L841.7-57.8L841.7 67.1Q841.7 80.4 838.6 88.1Q835.4 95.8 826.8 100.1Q818.2 104.4 806.5 105.5Q794.7 106.6 778.9 106.6L778.9 106.6Q778.2 101.6 776.1 95.1Q774.0 88.5 771.2 82.1Q768.5 75.7 765.8 71.1L765.8 71.1Q772.4 71.8 779.4 71.9Q786.4 72.1 792.2 72.1L792.2 72.1L800.4 72.1Q803.8 71.8 805.2 70.6Q806.7 69.3 806.7 66.4L806.7 66.4L806.7-57.8L751.8-57.8ZM666.2-6.8L666.2-38.2L728.1-38.2L728.1 44.5L756.8 26.0Q757.7 30.7 759.2 36.6Q760.6 42.5 762.4 47.8Q764.2 53.1 765.8 56.7L765.8 56.7Q746.2 69.8 733.7 78.3Q721.3 86.7 714.3 91.8Q707.3 96.9 703.7 99.9Q700.1 103.0 698.1 105.3L698.1 105.3Q696.9 101.4 694.3 96.0Q691.7 90.6 688.8 85.5Q685.9 80.4 683.2 77.2L683.2 77.2Q687.4 74.5 692.0 68.7Q696.5 62.8 696.5 54.9L696.5 54.9L696.5-6.8L666.2-6.8ZM675.2-85.4L675.2-85.4L697.2-106.4Q703.3-101.4 710.7-95.1Q718.2-88.8 724.8-82.6Q731.5-76.3 735.6-71.1L735.6-71.1L712.3-47.7Q708.7-52.9 702.2-59.5Q695.8-66.2 688.7-73.0Q681.6-79.7 675.2-85.4Z M904.5-31.8L904.5-65.3L987.4-65.3L987.4-107.1L1022.4-107.1L1022.4-65.3L1105.9-65.3L1105.9-31.8L1055.6-31.8Q1059.2-23.5 1063.5-15.4L1063.5-15.4Q1073.0 2.9 1085.5 18.4Q1098.0 33.9 1112.5 44.7L1112.5 44.7Q1108.4 48.1 1103.3 53.2Q1098.3 58.3 1093.7 63.7Q1089.2 69.1 1086.3 73.9L1086.3 73.9Q1075.4 64.4 1066.0 52.6L1066.0 52.6L1066.0 71.6L1022.4 71.6L1022.4 107.5L987.4 107.5L987.4 71.6L942.9 71.6L942.9 51.5Q932.2 64.6 919.8 75.0L919.8 75.0Q917.1 70.9 912.8 66.0Q908.5 61.0 904.0 56.2Q899.5 51.5 895.7 48.3L895.7 48.3Q910.6 37.5 923.2 21.2Q935.9 5.0 945.6-14.2L945.6-14.2Q949.9-22.8 953.5-31.8L953.5-31.8L904.5-31.8ZM987.4 38.2L987.4-31.8L987.1-31.8Q981.0-14.2 973.4 2.0L973.4 2.0Q964.3 21.5 952.8 38.2L952.8 38.2L987.4 38.2ZM1022.4-30.9L1022.4-30.9L1022.4 38.2L1055.6 38.2Q1044.5 21.2 1035.5 1.6L1035.5 1.6Q1028.2-14.2 1022.4-30.9Z"/><path id="ink" d="M12 104.8L12-94.4L175.1-94.4L175.1 104.8L139.6 104.8L139.6 89.9L45.9 89.9L45.9 104.8L12 104.8ZM45.9 56.7L139.6 56.7L139.6 12.6L45.9 12.6L45.9 56.7ZM45.9-19.9L139.6-19.9L139.6-61.2L45.9-61.2L45.9-19.9Z M280.3 106.4L280.3-98.9L400.0-98.9L400.0-94.6Q399.8-90.1 399.6-87.2L399.6-87.2Q398.9-63.2 396.8-51.2Q394.8-39.1 390.5-34.1Q386.2-29.1 380.2-27.3Q374.3-25.5 367.7-24.8L367.7-24.8Q361.6-24.4 352.3-24.4Q343.1-24.4 332.9-24.6L332.9-24.6Q332.7-30.5 330.3-38.2Q327.9-45.9 324.8-51.0L324.8-51.0Q330.9-50.6 336.3-50.4Q341.7-50.1 346.1-50.0Q350.5-49.9 353.0-49.9L353.0-49.9Q356.2-49.9 358.2-50.3Q360.2-50.6 361.8-52.2Q363.4-53.8 364.3-58.7L364.3-58.7Q364.8-62.3 365.2-68.7L365.2-68.7L312.8-68.7L312.8-19.2L377.6-19.2L383.3-20.1L404.3-14.0Q400.5 15.4 391.0 38.6L391.0 38.6Q386.0 50.8 379.4 61.2L379.4 61.2Q393.5 72.5 411.1 79.5L411.1 79.5Q407.5 82.7 403.2 87.6Q398.9 92.6 395.0 97.9Q391.2 103.2 388.7 107.5L388.7 107.5Q371.3 99.4 358.0 87.4L358.0 87.4Q344.7 99.8 326.8 108.6L326.8 108.6Q323.2 102.5 316.9 95.3L316.9 95.3Q314.8 93.1 312.8 90.8L312.8 90.8L312.8 106.4L280.3 106.4ZM200.6 38.6L193.8 5.0Q204.4 2.9 217.7 0L217.7 0Q220.4-0.5 223.1-1.1L223.1-1.1L223.1-33.7L196.7-33.7L196.7-65.5L223.1-65.5L223.1-107.1L256.8-107.1L256.8-65.5L276.2-65.5L276.2-33.7L256.8-33.7L256.8-8.6Q265.8-10.6 274.6-12.6L274.6-12.6L278.7 19.4Q267.9 22.1 256.8 24.8L256.8 24.8L256.8 71.8Q256.8 83.8 254.2 90.6Q251.6 97.4 244.6 101.2Q237.6 105.0 227.5 106.2Q217.5 107.3 203.9 107.1L203.9 107.1Q203.0 100.5 200.2 91.5Q197.4 82.4 194.2 75.9L194.2 75.9Q201.2 76.1 208.5 76.2Q215.7 76.3 218.2 76.3L218.2 76.3Q221.1 76.3 222.1 75.3Q223.1 74.3 223.1 71.6L223.1 71.6L223.1 33.2Q211.2 36.1 200.6 38.6L200.6 38.6ZM337.0 63.0L337.0 63.0Q332.0 56.0 327.9 48.3L327.9 48.3Q319.4 33.0 312.8 14.9L312.8 14.9L312.8 79.7Q323.4 74.3 332.0 67.3L332.0 67.3Q334.5 65.3 337.0 63.0ZM367.5 9.9L342.4 9.9Q347.4 21.7 354.1 32.3L354.1 32.3Q355.5 34.8 357.1 37.0L357.1 37.0Q361.6 28.5 365.0 18.5L365.0 18.5Q366.3 14.5 367.5 9.9L367.5 9.9Z"/></svg>
